<svg id="Capa_1" enable-background="new 0 0 512 512" height="512" viewBox="0 0 512 512" width="512" xmlns="http://www.w3.org/2000/svg"><g><g><g><g><g><g><g><g><circle cx="256" cy="256" fill="#ff6c52" r="256"/></g></g></g></g></g></g></g><path d="m512 256c0-5.356-.165-10.675-.489-15.95l-91.709-91.709-10.689 8.333-101.398-101.398-20.919 18.198-175.162 315.087 122.52 122.52c7.202.608 14.487.919 21.846.919 141.385 0 256-114.615 256-256z" fill="#f43425"/><g><g><g><g><g><g><g><circle cx="256" cy="256" fill="#fff" r="196"/></g></g></g></g></g></g></g><g><g><g><g><g><g><g><path d="m256 60c-.005 0 .005 0 0 0v392c108.248 0 196-87.752 196-196s-87.752-196-196-196z" fill="#e9edf5"/></g></g></g></g></g></g></g><g><g><g><g><g><g><g><path d="m256 106.99c-39.841.083-76.322 15.806-103.009 41.351l103.009 105.804z" fill="#ffce00"/></g><g><path d="m152.991 148.341c-28.067 26.865-45.652 64.593-45.989 106.436h148.998v-.631z" fill="#fa0"/></g><g><path d="m106.986 256c0 40.566 16.218 77.339 42.514 104.209l106.5-104.607v-.826h-148.999c-.003.409-.015.815-.015 1.224z" fill="#ff6c52"/></g><g><path d="m256 405.01v-149.408l-106.5 104.606c26.983 27.571 64.895 44.715 106.5 44.802z" fill="#ff432e"/></g><g><path d="m256 254.776v-.631z" fill="#1dd882"/></g><g><path d="m256 254.776 105.788-103.704c-26.997-27.221-64.419-44.086-105.788-44.086-.106 0 .106.003 0 .004v147.155z" fill="#1dd882"/></g><g><path d="m361.788 151.073-105.788 103.703h148.998c-.325-40.443-16.767-77.041-43.21-103.703z" fill="#4253ce"/></g><g><path d="m256 254.776v.114z" fill="#1dd882"/></g><g><path d="m256 255.602v-.712-.114z" fill="#1dd882"/></g><g><path d="m405.014 256c0-.409-.012-.815-.016-1.224h-148.998v.114l104.539 107.289c27.45-27.029 44.475-64.613 44.475-106.179z" fill="#7584f2"/></g><g><path d="m256 254.89v.712 149.408c.106 0-.106.004 0 .004 40.732 0 77.641-16.349 104.539-42.835z" fill="#a3d4ff"/></g></g></g></g></g></g></g><g><path d="m307.398 55.276-51.398 80.913-52.032-80.914z" fill="#555a66"/></g><g><path d="m307.398 55.276-51.398-.001v80.891.022z" fill="#333940"/></g><g><g><g><g><g><g><g><ellipse cx="256" cy="256" fill="#fff" rx="44.109" ry="44.109" transform="matrix(.707 -.707 .707 .707 -106.039 256)"/></g></g></g></g></g></g></g><g><g><g><g><g><g><g><path d="m256 211.891c-.005 0 .005 0 0 0v88.218c24.361 0 44.109-19.749 44.109-44.109s-19.748-44.109-44.109-44.109z" fill="#e9edf5"/></g></g></g></g></g></g></g></g></svg>