<svg id="Capa_1" enable-background="new 0 0 512 512" height="512" viewBox="0 0 512 512" width="512" xmlns="http://www.w3.org/2000/svg"><g><g><path d="m304.534 176.75h-97.067c-2.209 0-4 1.791-4 4v59.047c0 2.209 1.791 4 4 4h97.067c2.209 0 4-1.791 4-4v-59.047c0-2.209-1.791-4-4-4z" fill="#ffcbbe"/></g><g><path d="m304.534 176.75h-18.383v67.047h18.383c2.209 0 4-1.791 4-4v-59.047c0-2.209-1.791-4-4-4z" fill="#fdad9d"/></g><g><path d="m192.214 149.142h-11.677c-9.786 0-17.719-7.933-17.719-17.719v-14.699c0-6.99 5.666-12.656 12.656-12.656h.048c9.218 0 16.692 7.473 16.692 16.692z" fill="#ffcbbe"/></g><g><path d="m319.786 149.142h11.677c9.786 0 17.719-7.933 17.719-17.719v-14.699c0-6.99-5.666-12.656-12.656-12.656h-.048c-9.219 0-16.692 7.473-16.692 16.692z" fill="#ffcbbe"/></g><g><path d="m319.786 149.142h11.677c9.786 0 17.719-7.933 17.719-17.719v-14.699c0-6.99-5.666-12.656-12.656-12.656h-.048c-9.219 0-16.692 7.473-16.692 16.692z" fill="#fdad9d"/></g><g><path d="m299.505 239.665h-87.009c-84.291 0-152.622 68.331-152.622 152.622v102.201c0 5.523 4.477 10 10 10h372.252c5.523 0 10-4.477 10-10v-102.201c0-84.291-68.331-152.622-152.621-152.622z" fill="#f1f4f6"/></g><g><path d="m299.255 239.665h-52.533c84.429 0 152.871 68.443 152.871 152.871v101.934c0 5.532-4.484 10.016-10.016 10.016h52.534c5.532 0 10.016-4.484 10.016-10.016v-101.933c-.001-84.429-68.444-152.872-152.872-152.872z" fill="#dfeaef"/></g><g><path d="m303.784 57.868h-95.568c-12.723 0-23.038 10.314-23.038 23.038v3.097 60.368c0 20.648 10.787 39.795 28.447 50.494l28.509 17.271c8.523 5.163 19.209 5.163 27.731 0l28.509-17.271c17.66-10.699 28.447-29.846 28.447-50.494v-58.895-4.57c.001-12.724-10.314-23.038-23.037-23.038z" fill="#ffcbbe"/></g><g><path d="m245.062 280.152-18.76 128.852h60.702l-18.76-128.852z" fill="#da2ea2"/></g><g><path d="m268.244 280.152h-13.53l18.76 128.852h13.53z" fill="#b9147d"/></g><g><path d="m304.35 232.912-41.358 10.449c-3.13.791-10.853.791-13.983 0l-41.358-10.449c-4.28-1.081-8.435 2.154-8.435 6.569v38.05c0 3.628 3.775 6.022 7.057 4.476l46.947-22.119c1.159-.546 4.403-.546 5.562 0l46.947 22.119c3.282 1.546 7.057-.848 7.057-4.476v-38.05c-.001-4.415-4.156-7.651-8.436-6.569z" fill="#f1f4f6"/></g><g><g><path d="m304.35 232.912-9.287 2.346v41.724l10.665 5.025c3.282 1.546 7.057-.848 7.057-4.476v-38.05c0-4.415-4.155-7.651-8.435-6.569z" fill="#dfeaef"/></g></g><g><path d="m261.317 286.142 16.888-12.27c2.781-2.021 3.945-5.602 2.882-8.871l-6.451-19.853c-1.062-3.269-4.109-5.483-7.546-5.483h-20.875c-3.438 0-6.484 2.213-7.546 5.483l-6.451 19.853c-1.062 3.269.101 6.851 2.882 8.871l16.888 12.27c2.782 2.021 6.548 2.021 9.329 0z" fill="#da2ea2"/></g><g><path d="m281.085 264.992-6.445-19.835c-1.064-3.275-4.116-5.492-7.559-5.492h-11.931l6.443 19.828c1.064 3.275-.102 6.862-2.887 8.886l-15.583 11.321 8.859 6.436c2.786 2.024 6.557 2.024 9.343 0l16.873-12.259c2.785-2.023 3.951-5.61 2.887-8.885z" fill="#b9147d"/></g><g><path d="m303.784 57.868h-4.007v20.872 58.895c0 20.648-10.787 39.795-28.447 50.494l-28.509 17.271c-2.192 1.328-4.528 2.308-6.932 2.953l6.245 3.783c8.523 5.163 19.209 5.163 27.731 0l28.509-17.271c17.66-10.699 28.447-29.846 28.447-50.494v-58.895-4.57c.001-12.724-10.314-23.038-23.037-23.038z" fill="#fdad9d"/></g><g><path d="m251.12 7.512c-36.418 0-65.941 29.523-65.941 65.941v10.549c0-9.122 7.395-16.516 16.516-16.516h108.611c9.122 0 16.516 7.395 16.516 16.516v-10.549c0-36.418-29.523-65.941-65.941-65.941z" fill="#ffe07d"/></g><g><path d="m262.984 7.565c21.796 10.761 36.794 33.2 36.794 59.152v.769h10.528c9.122 0 16.516 7.395 16.516 16.516v-10.549c0-35.713-28.396-64.775-63.838-65.888z" fill="#ffd064"/></g><g><path d="m345.817 246.894-85.48 148.055c-1.928 3.339-6.747 3.339-8.674 0l-85.48-148.055c-24.913 7.96-47.05 22.131-64.587 40.697l25.68 48.952c13.126 25.021 19.983 52.854 19.983 81.109v86.836h217.48v-86.836c0-28.255 6.857-56.087 19.983-81.108l25.68-48.953c-17.535-18.567-39.672-32.737-64.585-40.697z" fill="#5766cb"/></g><g><path d="m387.118 331.978 23.285-44.387c-17.536-18.566-39.674-32.737-64.587-40.697l-11.679 20.228c23.171 16.18 41.646 38.613 52.981 64.856z" fill="#3d4fc3"/></g><g><path d="m328.51 444.933h-46.539c-3.3 0-5.975-2.675-5.975-5.975v-18.063c0-3.3 2.675-5.975 5.975-5.975h46.539c3.3 0 5.975 2.675 5.975 5.975v18.063c-.001 3.3-2.676 5.975-5.975 5.975z" fill="#f1f4f6"/></g><g><path d="m328.5 414.92h-4.466v13.577c0 3.305-2.679 5.984-5.984 5.984h-42.053v4.466c0 3.305 2.679 5.984 5.984 5.984h46.519c3.305 0 5.984-2.679 5.984-5.984v-18.044c0-3.304-2.679-5.983-5.984-5.983z" fill="#dfeaef"/></g><g><path d="m417.791 284.497c-19.096-20.939-43.102-36.251-69.585-44.726-.015-.005-.03-.01-.045-.015-9.465-3.026-19.244-5.183-29.231-6.405-.717-1.52-1.695-2.894-2.884-4.064v-39.121c8.764-9.257 14.774-20.921 17.147-33.572 13.112-.906 23.502-11.862 23.502-25.199v-14.649c0-11.132-9.057-20.189-20.189-20.189-.729 0-1.453.032-2.171.097v-23.2c-.001-40.503-32.952-73.454-73.455-73.454h-9.761c-40.502 0-73.454 32.951-73.454 73.453v23.2c-.718-.065-1.443-.097-2.171-.097-11.132 0-20.189 9.057-20.189 20.189v14.649c0 13.337 10.39 24.294 23.502 25.199 2.372 12.651 8.383 24.314 17.147 33.572v39.145c-1.2 1.18-2.163 2.547-2.871 4.038-9.995 1.223-19.783 3.382-29.255 6.411-.008.003-.017.005-.025.008-26.479 8.473-50.483 23.78-69.579 44.714-26.995 29.593-41.862 67.969-41.862 108.055v22.384c0 4.149 3.363 7.512 7.512 7.512s7.512-3.363 7.512-7.512v-22.384c0-34.84 12.107-66.886 32.53-91.977l20.708 39.474c12.511 23.848 19.124 50.687 19.124 77.618v79.324h-69.858c-1.381 0-2.504-1.123-2.504-2.504v-42.528c0-4.149-3.363-7.512-7.512-7.512s-7.512 3.363-7.512 7.512v42.528c0 9.665 7.863 17.529 17.529 17.529h372.219c9.665 0 17.529-7.863 17.529-17.529v-101.935c-.001-40.078-14.862-78.446-41.848-108.039zm-116.77-56.108c-.666.917-1.139 1.994-1.335 3.189-.635 3.885 1.834 7.561 5.586 8.498v33.412l-16.387-7.721c-.115-1.037-.324-2.074-.656-3.096l-6.445-19.836c-2.076-6.388-7.985-10.682-14.703-10.682h-20.856c-2.131 0-4.178.434-6.049 1.228l-29.197-7.376v-23.96l27.263 16.515c5.477 3.319 11.617 4.978 17.759 4.978 6.14 0 12.282-1.659 17.758-4.977l27.263-16.516v26.344zm-94.293 12.038 23.637 5.971-5.288 16.272c-.263.809-.455 1.626-.581 2.446l-17.768 8.372zm32.797 27.373c-.153-.112-.217-.307-.158-.487l6.446-19.835c.058-.18.224-.3.414-.3h20.856c.189 0 .356.121.414.3l6.444 19.835c.059.18-.005.376-.158.487l-16.873 12.259c-.153.112-.359.112-.512 0zm-47.822 8.271-14.214-24.619c4.647-1.144 9.388-2.071 14.214-2.765zm12.453 13.928c1.806 0 3.62-.396 5.319-1.196l20.307-9.568c.294.249.596.49.911.719l6.156 4.472-8.12 55.773-29.603-51.273c1.6.712 3.311 1.073 5.03 1.073zm46.489 3.951c1.921.814 3.964 1.226 6.008 1.226 2.045 0 4.087-.412 6.008-1.226l9.528 65.445-16.189 28.041-15.146-26.234zm33.67 44.443-7.857-53.966 6.155-4.472c.146-.106.281-.223.423-.334l19.489 9.182c1.7.801 3.513 1.197 5.319 1.197 1.718 0 3.43-.361 5.03-1.072zm35.982-89.706c4.826.694 9.567 1.621 14.214 2.765l-14.214 24.62zm-69.177-233.662h9.761c28.033 0 51.519 19.843 57.147 46.222-2.425-.826-5.021-1.273-7.722-1.273h-108.611c-2.7 0-5.297.447-7.722 1.273 5.628-26.379 29.114-46.222 57.147-46.222zm-65.741 126.605h-4.813c-5.644 0-10.235-4.591-10.235-10.235v-14.649c0-2.847 2.317-5.165 5.165-5.165 1.911 0 3.752.592 5.323 1.712 2.292 1.632 5.302 1.848 7.801.56 2.5-1.288 4.071-3.866 4.071-6.678v-23.172c0-4.965 4.039-9.004 9.004-9.004h108.611c4.965 0 9.004 4.039 9.004 9.004v23.173c-.191 5.92 7.163 9.706 11.872 6.117 1.571-1.12 3.412-1.712 5.323-1.712 2.848 0 5.165 2.317 5.165 5.165v14.649c0 5.644-4.591 10.235-10.236 10.235h-4.813c-3.914 0-7.172 3.005-7.488 6.906-1.331 16.441-10.547 31.358-24.652 39.903l-28.509 17.271c-6.152 3.727-13.795 3.728-19.946-.001l-28.509-17.27c-14.105-8.545-23.321-23.462-24.652-39.903-.314-3.901-3.572-6.906-7.486-6.906zm259.235 352.841c0 1.381-1.123 2.504-2.504 2.504h-69.857v-79.324c0-16.037 2.304-31.966 6.848-47.345 1.175-3.979-1.097-8.157-5.076-9.333-3.975-1.177-8.157 1.096-9.333 5.076-4.953 16.762-7.464 34.123-7.464 51.602v79.324h-202.456v-79.324c0-29.353-7.208-58.606-20.843-84.598l-23.249-44.318c14.589-14.347 32.254-25.633 52.046-32.803l82.431 142.774c2.263 3.919 6.316 6.259 10.843 6.259 4.526 0 8.579-2.34 10.843-6.26l82.429-142.772c19.791 7.171 37.457 18.457 52.046 32.805l-23.247 44.316c-1.927 3.674-.512 8.216 3.163 10.143 1.114.584 2.307.862 3.483.862 2.704 0 5.316-1.464 6.659-4.024l20.706-39.472c20.423 25.092 32.531 57.138 32.531 91.975v101.933z"/><circle cx="289.69" cy="120.277" r="9.146"/><circle cx="222.311" cy="120.277" r="9.146"/><path d="m236.232 172.05c6.008 4.228 13.07 6.462 20.422 6.462s14.413-2.234 20.422-6.462c3.393-2.387 4.209-7.073 1.822-10.466-2.387-3.394-7.074-4.207-10.467-1.821-3.464 2.437-7.536 3.725-11.777 3.725s-8.312-1.288-11.777-3.725c-3.392-2.388-8.079-1.571-10.467 1.821-2.387 3.393-1.572 8.079 1.822 10.466z"/><path d="m328.5 407.408h-46.52c-7.442 0-13.497 6.055-13.497 13.497v18.043c0 7.442 6.055 13.497 13.497 13.497h46.52c7.442 0 13.497-6.055 13.497-13.497v-18.043c-.001-7.442-6.056-13.497-13.497-13.497zm-1.528 30.012h-43.464v-14.987h43.464z"/></g></g></svg>